<mxfile host="app.diagrams.net" modified="2024-09-13T17:13:43.430Z" agent="Mozilla/5.0 (Macintosh; Intel Mac OS X 10_15_7) AppleWebKit/537.36 (KHTML, like Gecko) Chrome/128.0.0.0 Safari/537.36" version="24.5.5" etag="VVlTYw-_GV0O6QX1ayui" type="github">
  <diagram name="Сторінка-1" id="sYz25XeyXM2wC5si2nx3">
    <mxGraphModel>
      <root>
        <mxCell id="0" />
        <mxCell id="1" parent="0" />
      </root>
    </mxGraphModel>
  </diagram>
</mxfile>
